<?xml version="1.0" encoding="UTF-8" standalone="no"?>
<!DOCTYPE svg PUBLIC "-//W3C//DTD SVG 1.1//EN" "http://www.w3.org/Graphics/SVG/1.1/DTD/svg11.dtd">
<svg width="100%" height="100%" viewBox="0 0 88 90" version="1.1" xmlns="http://www.w3.org/2000/svg" xmlns:xlink="http://www.w3.org/1999/xlink" xml:space="preserve" xmlns:serif="http://www.serif.com/" style="fill-rule:evenodd;clip-rule:evenodd;stroke-linejoin:round;stroke-miterlimit:2;">
    <g transform="matrix(1,0,0,1,-1.4956,-2.50038)">
        <g id="アートボード1" transform="matrix(1,0,0,1,-10.1661,-13.2722)">
            <rect x="10.166" y="13.272" width="89.544" height="93.041" style="fill:none;"/>
            <g transform="matrix(1,0,0,1,5.16607,10.2722)">
                <path d="M93.512,50.93C93.547,66.094 85.696,80.184 72.782,88.133C59.872,96.082 43.755,96.746 30.231,89.891C16.708,83.031 7.723,69.633 6.512,54.52C6.407,53.243 6.813,51.973 7.645,50.993C8.477,50.012 9.66,49.407 10.942,49.301C13.606,49.082 15.942,51.067 16.16,53.731C16.899,62.524 21.039,70.68 27.699,76.469C34.36,82.258 43.015,85.219 51.824,84.727C60.637,84.234 68.906,80.324 74.879,73.829C80.852,67.333 84.055,58.763 83.809,49.942C83.563,41.121 79.883,32.747 73.559,26.594C67.231,20.441 58.754,17 49.93,17C44.614,16.988 39.368,18.242 34.629,20.66L38.219,27.082L38.219,27.078C38.516,27.707 38.449,28.445 38.051,29.012C37.653,29.578 36.981,29.887 36.289,29.82L11.941,28.39C11.605,28.34 11.32,28.125 11.18,27.82C11.039,27.512 11.062,27.156 11.238,26.871L23.422,6.32C23.821,5.757 24.489,5.449 25.176,5.507C25.864,5.57 26.469,5.996 26.762,6.621L29.903,12.23L29.899,12.23C43.411,5.234 59.59,5.789 72.587,13.695C85.583,21.601 93.517,35.715 93.513,50.929L93.512,50.93Z" style="fill:rgb(170,170,170);fill-rule:nonzero;"/>
            </g>
        </g>
    </g>
</svg>
